<svg width="20" height="20" viewBox="0 0 20 20" fill="none" xmlns="http://www.w3.org/2000/svg">
<mask id="mask0_1_3420" style="mask-type:alpha" maskUnits="userSpaceOnUse" x="0" y="0" width="20" height="20">
<rect width="20" height="20" fill="#D9D9D9"/>
</mask>
<g mask="url(#mask0_1_3420)">
<path d="M3.77586 15.4167C3.21183 15.4167 2.77405 15.2169 2.46252 14.8173C2.15114 14.4177 2.03336 13.9466 2.10919 13.404L3.00023 7.10587C3.10926 6.37407 3.43273 5.77067 3.97065 5.29567C4.50857 4.8208 5.14343 4.58337 5.87523 4.58337H14.1252C14.857 4.58337 15.4919 4.8208 16.0298 5.29567C16.5677 5.77067 16.8912 6.37407 17.0002 7.10587L17.8913 13.404C17.9671 13.9466 17.8493 14.4177 17.5379 14.8173C17.2264 15.2169 16.7886 15.4167 16.2246 15.4167C15.9864 15.4167 15.7677 15.3766 15.5684 15.2965C15.3691 15.2164 15.184 15.0908 15.0132 14.9198L13.0098 12.9167H6.99065L4.98732 14.9198C4.81648 15.0908 4.63141 15.2164 4.43211 15.2965C4.2328 15.3766 4.01405 15.4167 3.77586 15.4167ZM4.10919 14.0417L6.48419 11.6667H13.5163L15.8913 14.0417C15.9191 14.0695 16.0248 14.1112 16.2086 14.1667C16.3613 14.1667 16.4829 14.1216 16.5731 14.0313C16.6634 13.941 16.6947 13.8195 16.6669 13.6667L15.7502 7.25004C15.6947 6.84726 15.5128 6.51046 15.2046 6.23962C14.8964 5.96879 14.5366 5.83337 14.1252 5.83337H5.87523C5.46384 5.83337 5.10405 5.96879 4.79586 6.23962C4.48766 6.51046 4.30579 6.84726 4.25023 7.25004L3.33357 13.6667C3.30579 13.8195 3.33704 13.941 3.42732 14.0313C3.51759 14.1216 3.63912 14.1667 3.7919 14.1667C3.83037 14.1667 3.93614 14.125 4.10919 14.0417ZM14.1669 10.7532C14.3763 10.7532 14.5543 10.68 14.7007 10.5338C14.8469 10.3874 14.92 10.2095 14.92 10C14.92 9.7906 14.8469 9.61268 14.7007 9.46629C14.5543 9.32004 14.3763 9.24692 14.1669 9.24692C13.9575 9.24692 13.7795 9.32004 13.6332 9.46629C13.4869 9.61268 13.4138 9.7906 13.4138 10C13.4138 10.2095 13.4869 10.3874 13.6332 10.5338C13.7795 10.68 13.9575 10.7532 14.1669 10.7532ZM12.5002 8.25317C12.7097 8.25317 12.8876 8.18004 13.034 8.03379C13.1802 7.8874 13.2534 7.70949 13.2534 7.50004C13.2534 7.2906 13.1802 7.11268 13.034 6.96629C12.8876 6.82004 12.7097 6.74692 12.5002 6.74692C12.2908 6.74692 12.1129 6.82004 11.9665 6.96629C11.8202 7.11268 11.7471 7.2906 11.7471 7.50004C11.7471 7.70949 11.8202 7.8874 11.9665 8.03379C12.1129 8.18004 12.2908 8.25317 12.5002 8.25317ZM6.58669 10.7052H7.58044V9.24692H9.03877V8.25317H7.58044V6.79483H6.58669V8.25317H5.12836V9.24692H6.58669V10.7052Z" fill="#343434"/>
</g>
</svg>
