<svg width="20" height="20" viewBox="0 0 20 20" fill="none" xmlns="http://www.w3.org/2000/svg">
<mask id="mask0_1_3425" style="mask-type:alpha" maskUnits="userSpaceOnUse" x="0" y="0" width="20" height="20">
<rect width="20" height="20" fill="#D9D9D9"/>
</mask>
<g mask="url(#mask0_1_3425)">
<path d="M10 13.1249C10.9837 13.1249 11.82 12.7807 12.5087 12.0922C13.1974 11.4038 13.5417 10.5678 13.5417 9.58432C13.5417 8.60071 13.1974 7.76439 12.5087 7.07536C11.82 6.38619 10.9837 6.04161 10 6.04161V7.03515C10.7104 7.03515 11.3127 7.28293 11.8069 7.77848C12.301 8.2739 12.5481 8.8755 12.5481 9.58327C12.5481 10.2911 12.3003 10.8926 11.8048 11.3881C11.3094 11.8836 10.7078 12.1314 10 12.1314C9.55153 12.1314 9.13354 12.0187 8.74604 11.7933C8.35868 11.5679 8.0459 11.2645 7.80771 10.8831L6.96479 11.391C7.29271 11.9272 7.72243 12.3503 8.25396 12.6601C8.78535 12.97 9.36736 13.1249 10 13.1249ZM6.95521 10.3476C7.12507 10.3476 7.26903 10.2886 7.38708 10.1706C7.50514 10.0525 7.56417 9.90855 7.56417 9.73869C7.56417 9.56883 7.50514 9.42487 7.38708 9.30682C7.26903 9.18876 7.12368 9.12973 6.95104 9.12973C6.77854 9.12973 6.63458 9.18716 6.51917 9.30202C6.40389 9.41689 6.34625 9.56223 6.34625 9.73807C6.34625 9.91376 6.40375 10.0592 6.51875 10.1745C6.63375 10.2899 6.77924 10.3476 6.95521 10.3476ZM7.38937 8.60577C7.55924 8.60577 7.70319 8.54807 7.82125 8.43265C7.93931 8.31723 7.99833 8.17327 7.99833 8.00077C7.99833 7.82827 7.94083 7.683 7.82583 7.56494C7.71083 7.44689 7.56535 7.38786 7.38937 7.38786C7.21354 7.38786 7.06806 7.44689 6.95292 7.56494C6.83792 7.683 6.78042 7.82827 6.78042 8.00077C6.78042 8.17327 6.83944 8.31723 6.9575 8.43265C7.07556 8.54807 7.21951 8.60577 7.38937 8.60577ZM8.58167 7.4439C8.75153 7.4439 8.89549 7.38487 9.01354 7.26682C9.1316 7.14876 9.19062 7.0048 9.19062 6.83494C9.19062 6.66508 9.1316 6.52112 9.01354 6.40307C8.89549 6.28501 8.75021 6.22598 8.57771 6.22598C8.40521 6.22598 8.26125 6.28341 8.14583 6.39827C8.03042 6.51314 7.97271 6.65841 7.97271 6.83411C7.97271 7.0098 8.03021 7.15536 8.14521 7.27077C8.26035 7.38619 8.40583 7.4439 8.58167 7.4439ZM10 17.9006C8.19764 17.409 6.70542 16.3481 5.52333 14.7179C4.34111 13.0876 3.75 11.2649 3.75 9.24994V4.45515L10 2.11536L16.25 4.45515V9.24994C16.25 11.2649 15.6589 13.0876 14.4767 14.7179C13.2946 16.3481 11.8024 17.409 10 17.9006ZM10 16.5833C11.4444 16.1249 12.6389 15.2083 13.5833 13.8333C14.5278 12.4583 15 10.9305 15 9.24994V5.31244L10 3.44536L5 5.31244V9.24994C5 10.9305 5.47222 12.4583 6.41667 13.8333C7.36111 15.2083 8.55556 16.1249 10 16.5833Z" fill="#343434"/>
</g>
</svg>
