<svg width="100" height="20" viewBox="0 0 100 20" fill="none" xmlns="http://www.w3.org/2000/svg">
<g clip-path="url(#clip0_781_658)">
<g filter="url(#filter0_d_781_658)">
<path d="M13.0695 5.23978C16.6562 5.23978 16.1345 6.58751 15.9824 7.19617C15.3955 9.45689 14.4607 13.3045 14.4607 13.3045C14.0912 14.7391 12.6348 15.0217 11.5044 15.0435H11.4827H11.4175C11.1783 15.0652 10.9392 15.0435 10.7219 15.0435H10.3958L4.02665 15.0217L5.6135 13.0871H9.9393H11.1131L12.5913 7.19617H10.461L9.24369 12.0654H5.87435L7.09166 7.19617L5.46134 5.23978C8.11333 5.23978 10.548 5.23978 13.0695 5.23978ZM26.7419 10.1742L24.2855 11.3263L26.8288 15.0435H22.8508L20.764 12.0437L20.0249 15.0435H16.6338L18.3511 8.1961H21.7204L21.3292 9.78295L23.7421 8.60912L24.0899 7.19617H22.3508H18.5902L16.9599 5.26152H25.8723L27.4809 7.19617L26.7419 10.1742ZM31.9205 11.1307L31.4206 13.0871H35.9855L34.3551 15.0435L29.6598 15.0217L28.0512 13.0871L29.2685 8.1961H32.6379L32.4205 9.15256L35.7029 9.13082L35.2029 11.1307H31.9205ZM37.3549 7.19617H29.5076L28.0295 5.23978H35.7898L37.3549 7.19617ZM46.5201 5.23978L48.1504 7.19617L46.194 15.0435L42.8029 15.0217L43.7594 11.3046L43.7811 11.2394L40.9335 13.9349L40.6509 15.0435H36.586L44.6724 7.69614L44.7593 7.19617H42.6073L42.2812 8.54391L37.912 12.4784L39.2162 7.19617L40.8466 5.23978H46.5201ZM60.0462 5.23978H63.4373L62.9373 7.21791L61.0027 15.0435H57.6116L58.5028 11.4133L55.8508 15.0435L53.9379 15.0217L51.4816 7.21791L49.873 5.23978H54.3292L56.0247 10.6959L60.0462 5.23978ZM50.3947 8.30479L50.5686 7.58745L52.3293 13.2175L51.8728 15.0435L48.6991 15.087L50.3947 8.30479Z" fill="white"/>
</g>
<path d="M82.891 11.3901L82.8794 9.78258L85.1079 9.76645L84.3721 11.3901L82.891 11.3901Z" fill="white"/>
<g filter="url(#filter1_d_781_658)">
<path d="M73.474 10.0847L67.4962 11.9759L67.1266 13.4541H72.6263L72.1263 15.4104L63.2573 15.3887L64.3659 10.9107L70.3438 9.01957L70.7134 7.58488H65.2137L65.6919 5.62849C66.8223 5.54154 74.5827 5.62849 74.5827 5.62849C74.6044 5.54154 73.474 10.0847 73.474 10.0847Z" fill="white"/>
<path d="M79.0594 5.65023H84.559L82.1027 15.4104H78.7116L79.6898 11.5194H74.2119L74.7771 9.25868L79.0594 5.65023ZM80.1897 9.56301L80.6462 7.80226L78.4725 9.56301H80.1897Z" fill="white"/>
<path d="M94.1005 7.2843L90.2409 15.4104H90.3977H87.0066L88.6406 11.5204L89.1112 10.4379L90.3977 7.58488H85.0502L85.5284 5.62849H93.2062L94.1005 7.23723V7.2843Z" fill="white"/>
</g>
</g>
<defs>
<filter id="filter0_d_781_658" x="1.86172" y="4.67493" width="61.5758" height="11.9182" filterUnits="userSpaceOnUse" color-interpolation-filters="sRGB">
<feFlood flood-opacity="0" result="BackgroundImageFix"/>
<feColorMatrix in="SourceAlpha" type="matrix" values="0 0 0 0 0 0 0 0 0 0 0 0 0 0 0 0 0 0 127 0" result="hardAlpha"/>
<feOffset dx="-1.12964" dy="0.470681"/>
<feGaussianBlur stdDeviation="0.51775"/>
<feComposite in2="hardAlpha" operator="out"/>
<feColorMatrix type="matrix" values="0 0 0 0 0 0 0 0 0 0 0 0 0 0 0 0 0 0 0.5 0"/>
<feBlend mode="normal" in2="BackgroundImageFix" result="effect1_dropShadow_781_658"/>
<feBlend mode="normal" in="SourceGraphic" in2="effect1_dropShadow_781_658" result="shape"/>
</filter>
<filter id="filter1_d_781_658" x="61.0922" y="5.02503" width="33.0084" height="11.8918" filterUnits="userSpaceOnUse" color-interpolation-filters="sRGB">
<feFlood flood-opacity="0" result="BackgroundImageFix"/>
<feColorMatrix in="SourceAlpha" type="matrix" values="0 0 0 0 0 0 0 0 0 0 0 0 0 0 0 0 0 0 127 0" result="hardAlpha"/>
<feOffset dx="-1.12964" dy="0.470681"/>
<feGaussianBlur stdDeviation="0.51775"/>
<feComposite in2="hardAlpha" operator="out"/>
<feColorMatrix type="matrix" values="0 0 0 0 0 0 0 0 0 0 0 0 0 0 0 0 0 0 0.5 0"/>
<feBlend mode="normal" in2="BackgroundImageFix" result="effect1_dropShadow_781_658"/>
<feBlend mode="normal" in="SourceGraphic" in2="effect1_dropShadow_781_658" result="shape"/>
</filter>
<clipPath id="clip0_781_658">
<rect width="100" height="20" fill="white"/>
</clipPath>
</defs>
</svg>
