<svg width="40" height="40" viewBox="0 0 40 40" fill="none" xmlns="http://www.w3.org/2000/svg">
<path d="M36.3432 16.7356H35.0007V16.6665H20.0007V23.3331H29.4198C28.0457 27.214 24.3532 29.9998 20.0007 29.9998C14.4782 29.9998 10.0007 25.5223 10.0007 19.9998C10.0007 14.4773 14.4782 9.9998 20.0007 9.9998C22.5498 9.9998 24.869 10.9615 26.6348 12.5323L31.349 7.81813C28.3723 5.04396 24.3907 3.33313 20.0007 3.33313C10.7965 3.33313 3.33398 10.7956 3.33398 19.9998C3.33398 29.204 10.7965 36.6665 20.0007 36.6665C29.2048 36.6665 36.6673 29.204 36.6673 19.9998C36.6673 18.8823 36.5523 17.7915 36.3432 16.7356Z" fill="#FBC02D"/>
<path d="M5.255 12.2425L10.7308 16.2583C12.2125 12.59 15.8008 9.99998 20 9.99998C22.5492 9.99998 24.8683 10.9616 26.6342 12.5325L31.3483 7.81831C28.3717 5.04415 24.39 3.33331 20 3.33331C13.5983 3.33331 8.04667 6.94748 5.255 12.2425Z" fill="#E53935"/>
<path d="M20 36.6666C24.305 36.6666 28.2166 35.0191 31.1741 32.34L26.0158 27.975C24.3425 29.2425 22.2625 30 20 30C15.665 30 11.9841 27.2358 10.5975 23.3783L5.16248 27.5658C7.92081 32.9633 13.5225 36.6666 20 36.6666Z" fill="#4CAF50"/>
<path d="M36.3425 16.7358L36.3292 16.6666H35H20V23.3333H29.4192C28.7592 25.1975 27.56 26.805 26.0133 27.9758L26.0158 27.9741L31.1742 32.3391C30.8092 32.6708 36.6667 28.3333 36.6667 20C36.6667 18.8825 36.5517 17.7916 36.3425 16.7358Z" fill="#1565C0"/>
</svg>
