<svg width="19" height="20" viewBox="0 0 19 20" fill="none" xmlns="http://www.w3.org/2000/svg">
<path d="M14.6167 19.4342H4.38326C1.96186 19.4342 0 17.4635 0 15.0422V8.49378C0 7.29189 0.742326 5.78073 1.69674 5.0384L6.46 1.32678C7.89163 0.213291 10.1805 0.160268 11.6651 1.20306L17.1265 5.02957C18.1781 5.76306 19 7.33608 19 8.6175V15.051C19 17.4635 17.0381 19.4342 14.6167 19.4342ZM7.27302 2.36957L2.50977 6.08119C1.88233 6.57608 1.32558 7.6984 1.32558 8.49378V15.0422C1.32558 16.7301 2.69535 18.1087 4.38326 18.1087H14.6167C16.3047 18.1087 17.6744 16.7389 17.6744 15.051V8.6175C17.6744 7.7691 17.0647 6.59375 16.3665 6.11654L10.9051 2.29003C9.89767 1.58306 8.23628 1.6184 7.27302 2.36957Z" fill="#6D6D6D"/>
<path d="M9.50019 15.8994C9.13787 15.8994 8.8374 15.5989 8.8374 15.2366V12.5854C8.8374 12.2231 9.13787 11.9226 9.50019 11.9226C9.86252 11.9226 10.163 12.2231 10.163 12.5854V15.2366C10.163 15.5989 9.86252 15.8994 9.50019 15.8994Z" fill="#6D6D6D"/>
</svg>
