<svg width="20" height="20" viewBox="0 0 20 20" fill="none" xmlns="http://www.w3.org/2000/svg">
<mask id="mask0_27_57" style="mask-type:alpha" maskUnits="userSpaceOnUse" x="0" y="0" width="20" height="20">
<rect width="20" height="20" fill="#D9D9D9"/>
</mask>
<g mask="url(#mask0_27_57)">
<path d="M16.4006 10.6249V9.37493H19.4319V10.6249H16.4006ZM17.3583 16.2339L14.9334 14.4262L15.6976 13.4295L18.1225 15.237L17.3583 16.2339ZM15.6653 6.53847L14.9011 5.5416L17.326 3.73389L18.0905 4.73076L15.6653 6.53847ZM5.74312 15.4006V12.1474H4.88857C4.47048 12.1474 4.11338 12.0002 3.81728 11.7058C3.52104 11.4115 3.37292 11.0565 3.37292 10.641V9.35889C3.37292 8.94333 3.52104 8.5884 3.81728 8.2941C4.11338 7.99965 4.47048 7.85243 4.88857 7.85243H8.12946L11.8862 5.62493V14.3749L8.12946 12.1474H7.00075V15.4006H5.74312ZM10.6286 12.1539V7.84597L8.47761 9.10243H4.88857C4.82415 9.10243 4.76504 9.12917 4.71124 9.18264C4.65745 9.23611 4.63055 9.29486 4.63055 9.35889V10.641C4.63055 10.705 4.65745 10.7637 4.71124 10.8172C4.76504 10.8707 4.82415 10.8974 4.88857 10.8974H8.47761L10.6286 12.1539ZM13.047 12.5993V7.40055C13.3759 7.69653 13.6409 8.06937 13.8418 8.51909C14.0429 8.96896 14.1434 9.46257 14.1434 9.99993C14.1434 10.5373 14.0429 11.0309 13.8418 11.4808C13.6409 11.9305 13.3759 12.3033 13.047 12.5993Z" fill="white"/>
</g>
</svg>
