<?xml version="1.0" encoding="UTF-8"?>
<svg version="1.1" xmlns="http://www.w3.org/2000/svg" width="72" height="72">
<path d="M0 0 C0.87411026 -0.0066568 1.74822052 -0.0133136 2.64881897 -0.02017212 C4.49722184 -0.03029538 6.34566123 -0.03498924 8.1940918 -0.03466797 C11.02128312 -0.03904104 13.84691307 -0.07536252 16.67382812 -0.11328125 C18.47004674 -0.11914951 20.26627278 -0.12311884 22.0625 -0.125 C22.90739487 -0.13937103 23.75228973 -0.15374207 24.62278748 -0.16854858 C30.46755827 -0.12307267 30.46755827 -0.12307267 33.64672852 2.19287109 C35.39674013 4.7776939 35.43775236 6.2750725 35.09765625 9.3359375 C35.88011719 9.32433594 36.66257813 9.31273437 37.46875 9.30078125 C38.98662109 9.28724609 38.98662109 9.28724609 40.53515625 9.2734375 C41.54449219 9.26183594 42.55382812 9.25023437 43.59375 9.23828125 C46.09765625 9.3359375 46.09765625 9.3359375 47.09765625 10.3359375 C48.44343789 25.58172088 48.44343789 25.58172088 43.58203125 31.890625 C40.32635603 35.06062456 36.92626339 36.12878571 32.59765625 37.2109375 C29.45964142 38.21958512 28.31874248 38.77860034 25.97265625 40.8359375 C21.49257915 44.73165672 19.06100505 45.3359375 13.09765625 45.3359375 C13.09765625 49.2959375 13.09765625 53.2559375 13.09765625 57.3359375 C14.83015625 57.2328125 16.56265625 57.1296875 18.34765625 57.0234375 C23.70838906 57.05788951 23.70838906 57.05788951 26.72265625 59.2109375 C28.09765625 62.3359375 28.09765625 62.3359375 29.09765625 72.3359375 C17.21765625 72.3359375 5.33765625 72.3359375 -6.90234375 72.3359375 C-5.90234375 62.3359375 -5.90234375 62.3359375 -4.52734375 59.2109375 C-0.21887379 56.13345896 3.90857564 57.02706365 9.09765625 57.3359375 C9.09765625 53.3759375 9.09765625 49.4159375 9.09765625 45.3359375 C7.94265625 45.2946875 6.78765625 45.2534375 5.59765625 45.2109375 C0.99859762 44.66748613 -1.46272978 42.63357418 -4.96484375 39.75390625 C-7.71881547 37.73839872 -10.62125404 37.17112397 -13.90234375 36.3359375 C-18.38841853 34.50932899 -21.96631205 32.19419359 -24.25390625 27.74609375 C-25.75174604 22.17882176 -25.33597281 16.03709338 -24.90234375 10.3359375 C-23.90234375 9.3359375 -23.90234375 9.3359375 -21.3984375 9.23828125 C-19.88443359 9.25568359 -19.88443359 9.25568359 -18.33984375 9.2734375 C-17.32792969 9.28246094 -16.31601562 9.29148437 -15.2734375 9.30078125 C-14.09974609 9.31818359 -14.09974609 9.31818359 -12.90234375 9.3359375 C-12.79921875 8.2221875 -12.69609375 7.1084375 -12.58984375 5.9609375 C-12.36296875 4.7646875 -12.13609375 3.5684375 -11.90234375 2.3359375 C-7.96944773 -0.28599318 -4.56706499 0.01200194 0 0 Z M-7.90234375 4.3359375 C-11.84249906 10.24617046 -10.43067506 19.35428354 -9.33984375 26.2109375 C-7.69281922 32.47196694 -3.21132338 36.84472149 2.09765625 40.2734375 C9.38894315 42.85576828 15.11515853 42.62576816 22.09765625 39.3359375 C27.4690036 35.32717459 30.35654161 31.18424387 31.625 24.59765625 C32.10830073 21.26248178 32.26543325 18.07962588 32.28515625 14.7109375 C32.29933594 13.60492188 32.31351563 12.49890625 32.328125 11.359375 C32.10078307 8.37695713 31.49619285 6.90575284 30.09765625 4.3359375 C24.72252436 4.2619051 19.34768771 4.20739181 13.97216797 4.17114258 C12.14268832 4.15603499 10.313245 4.13554782 8.48388672 4.10961914 C5.85765633 4.07332165 3.23190376 4.05623135 0.60546875 4.04296875 C-0.62585281 4.01974297 -0.62585281 4.01974297 -1.88204956 3.99604797 C-4.42627348 3.960108 -4.42627348 3.960108 -7.90234375 4.3359375 Z M-21.90234375 14.3359375 C-22.16603447 19.22300546 -21.33232565 23.4441232 -19.21484375 27.8359375 C-16.5777274 30.68687409 -14.65086874 31.484 -10.90234375 32.3359375 C-11.06081787 31.75618164 -11.21929199 31.17642578 -11.38256836 30.57910156 C-12.18322993 27.12373352 -12.27457457 23.61683447 -12.46484375 20.0859375 C-12.50802734 19.34085938 -12.55121094 18.59578125 -12.59570312 17.828125 C-12.701311 15.9975885 -12.80228576 14.16678574 -12.90234375 12.3359375 C-17.92292665 11.83302369 -17.92292665 11.83302369 -21.90234375 14.3359375 Z M35.09765625 12.3359375 C35.03707031 13.44453125 34.97648437 14.553125 34.9140625 15.6953125 C34.82962674 17.1588657 34.74498026 18.62240675 34.66015625 20.0859375 C34.62083984 20.81554688 34.58152344 21.54515625 34.54101562 22.296875 C34.33618527 25.7632348 34.01245605 28.98926776 33.09765625 32.3359375 C36.81056151 31.49209539 38.79184832 30.64979301 41.47265625 27.8984375 C43.68875237 23.04007292 43.64528544 18.60574628 43.09765625 13.3359375 C41.91341299 11.92016273 41.91341299 11.92016273 38.53515625 12.2734375 C36.83359375 12.304375 36.83359375 12.304375 35.09765625 12.3359375 Z M-1.90234375 63.3359375 C-2.23234375 64.9859375 -2.56234375 66.6359375 -2.90234375 68.3359375 C6.33765625 68.3359375 15.57765625 68.3359375 25.09765625 68.3359375 C23.78468503 62.35055513 23.78468503 62.35055513 20.09765625 60.3359375 C17.13253065 59.91384889 14.15218765 60.01161129 11.16015625 60.0234375 C9.94295898 59.99926758 9.94295898 59.99926758 8.70117188 59.97460938 C2.72178187 59.88619097 2.72178187 59.88619097 -1.90234375 63.3359375 Z " fill="#616161" transform="translate(24.90234375,-0.3359375)"/>
</svg>
