<svg width="20" height="20" viewBox="0 0 20 20" fill="none" xmlns="http://www.w3.org/2000/svg">
<mask id="mask0_1_3400" style="mask-type:alpha" maskUnits="userSpaceOnUse" x="0" y="0" width="20" height="20">
<rect width="20" height="20" transform="matrix(-1 0 0 1 20 0)" fill="#D9D9D9"/>
</mask>
<g mask="url(#mask0_1_3400)">
<path d="M13.205 13.8781L17.9165 9.1666L13.205 4.45514L12.314 5.33326L16.1473 9.1666L12.314 12.9999L13.205 13.8781ZM3.33317 15.4166V12.4999C3.33317 11.752 3.59762 11.1137 4.1265 10.5849C4.65525 10.056 5.29359 9.7916 6.0415 9.7916H11.7242L8.51588 12.9999L9.40692 13.8781L14.1184 9.1666L9.40692 4.45514L8.51588 5.33326L11.7242 8.5416H6.0415C4.94748 8.5416 4.01428 8.92785 3.24192 9.70035C2.46942 10.4727 2.08317 11.4059 2.08317 12.4999V15.4166H3.33317Z" fill="#343434"/>
</g>
</svg>
