<svg width="20" height="20" viewBox="0 0 20 20" fill="none" xmlns="http://www.w3.org/2000/svg">
<mask id="mask0_1_3410" style="mask-type:alpha" maskUnits="userSpaceOnUse" x="0" y="0" width="20" height="20">
<rect width="20" height="20" fill="#D9D9D9"/>
</mask>
<g mask="url(#mask0_1_3410)">
<path d="M8.0768 17.9167L7.75951 15.3782C7.53631 15.3034 7.30742 15.1988 7.07284 15.0642C6.83839 14.9295 6.62874 14.7852 6.44388 14.6315L4.09284 15.625L2.16992 12.2917L4.20346 10.7548C4.1843 10.6309 4.17069 10.5065 4.16263 10.3815C4.15457 10.2565 4.15055 10.132 4.15055 10.008C4.15055 9.88949 4.15457 9.76907 4.16263 9.64671C4.17069 9.52435 4.1843 9.39053 4.20346 9.24525L2.16992 7.70837L4.09284 4.39108L6.43576 5.37671C6.63673 5.21754 6.85124 5.07199 7.0793 4.94004C7.30735 4.8081 7.53145 4.70205 7.75159 4.62192L8.0768 2.08337H11.923L12.2403 4.62983C12.4903 4.72067 12.7165 4.82671 12.9189 4.94796C13.1214 5.06921 13.3258 5.21212 13.532 5.37671L15.907 4.39108L17.8299 7.70837L15.7643 9.26921C15.7942 9.40379 15.8105 9.52962 15.8133 9.64671C15.8159 9.76365 15.8172 9.88143 15.8172 10C15.8172 10.1132 15.8145 10.2284 15.8091 10.3455C15.8038 10.4624 15.7846 10.5962 15.7516 10.7469L17.8012 12.2917L15.878 15.625L13.532 14.6234C13.3258 14.788 13.1153 14.9335 12.9005 15.06C12.6858 15.1867 12.4658 15.2901 12.2403 15.3702L11.923 17.9167H8.0768ZM9.16659 16.6667H10.8045L11.1041 14.4344C11.5294 14.3233 11.918 14.1655 12.2699 13.9609C12.622 13.7562 12.9615 13.493 13.2885 13.1715L15.3589 14.0417L16.1795 12.625L14.3718 11.263C14.4412 11.0471 14.4885 10.8355 14.5135 10.6282C14.5386 10.4209 14.5512 10.2116 14.5512 10C14.5512 9.7831 14.5386 9.57372 14.5135 9.37192C14.4885 9.16997 14.4412 8.96372 14.3718 8.75317L16.1953 7.37504L15.3749 5.95837L13.2803 6.84129C13.0015 6.54324 12.6674 6.2799 12.278 6.05129C11.8886 5.82268 11.4946 5.6608 11.0962 5.56567L10.8333 3.33337H9.17951L8.90367 5.55775C8.47853 5.65817 8.08596 5.81198 7.72596 6.01921C7.36583 6.22657 7.02228 6.49365 6.69534 6.82046L4.62492 5.95837L3.80451 7.37504L5.60409 8.71629C5.53464 8.91407 5.48603 9.11976 5.45826 9.33337C5.43048 9.54698 5.41659 9.77185 5.41659 10.008C5.41659 10.2249 5.43048 10.4375 5.45826 10.6459C5.48603 10.8542 5.53201 11.0599 5.59617 11.263L3.80451 12.625L4.62492 14.0417L6.68742 13.1667C7.00367 13.4914 7.3418 13.7575 7.7018 13.9648C8.06194 14.1721 8.45992 14.3312 8.89576 14.4423L9.16659 16.6667ZM10.0095 12.5C10.7028 12.5 11.2928 12.2567 11.7795 11.77C12.2662 11.2834 12.5095 10.6934 12.5095 10C12.5095 9.30671 12.2662 8.71671 11.7795 8.23004C11.2928 7.74337 10.7028 7.50004 10.0095 7.50004C9.30756 7.50004 8.71541 7.74337 8.23305 8.23004C7.75069 8.71671 7.50951 9.30671 7.50951 10C7.50951 10.6934 7.75069 11.2834 8.23305 11.77C8.71541 12.2567 9.30756 12.5 10.0095 12.5Z" fill="#343434"/>
</g>
</svg>
