<?xml version="1.0" encoding="UTF-8"?>
<svg version="1.1" xmlns="http://www.w3.org/2000/svg" width="72" height="72">
<path d="M0 0 C1.546875 0.8353125 1.546875 0.8353125 3.125 1.6875 C10.68380785 7.76741067 16.08472517 14.32786212 18 24 C19.19205354 36.41722434 17.54625122 46.33409536 9.5625 56.25390625 C3.39479135 63.14632066 -4.29456473 67.61585921 -13.5390625 68.23828125 C-21.829194 68.46151613 -28.56618949 68.10289157 -36 64 C-37.03125 63.443125 -38.0625 62.88625 -39.125 62.3125 C-46.68380785 56.23258933 -52.08472517 49.67213788 -54 40 C-54.89396348 30.68788044 -54.6245274 22.37893467 -50 14 C-49.443125 12.96875 -48.88625 11.9375 -48.3125 10.875 C-36.3963605 -3.93965992 -17.26132694 -9.52692468 0 0 Z M-42 11 C-42.7425 11.7425 -43.485 12.485 -44.25 13.25 C-48.8538445 20.48461278 -51.27620686 28.44809839 -50 37 C-48.13508043 44.87900932 -44.79940889 50.41292645 -39 56 C-38.2575 56.7425 -37.515 57.485 -36.75 58.25 C-29.51538722 62.8538445 -21.55190161 65.27620686 -13 64 C-5.12099068 62.13508043 0.41292645 58.79940889 6 53 C6.7425 52.2575 7.485 51.515 8.25 50.75 C13.51512644 42.47622987 15.48958982 33.86592394 13.41015625 24.28125 C10.83639333 15.83646106 5.81216083 9.06484621 -1.66796875 4.30078125 C-16.193095 -3.18706079 -30.56988821 -0.86451034 -42 11 Z " fill="#616161" transform="translate(54,4)"/>
<path d="M0 0 C3.125 0.375 3.125 0.375 6 1 C6.125 3.375 6.125 3.375 6 6 C5.34 6.66 4.68 7.32 4 8 C1.375 7.625 1.375 7.625 -1 7 C-1.625 4.625 -1.625 4.625 -2 2 C-1.34 1.34 -0.68 0.68 0 0 Z " fill="#616161" transform="translate(51,32)"/>
<path d="M0 0 C2.625 0.375 2.625 0.375 5 1 C5.625 3.375 5.625 3.375 6 6 C5.34 6.66 4.68 7.32 4 8 C0.875 7.625 0.875 7.625 -2 7 C-2.125 4.625 -2.125 4.625 -2 2 C-1.34 1.34 -0.68 0.68 0 0 Z " fill="#616161" transform="translate(17,32)"/>
<path d="M0 0 C2.625 0.375 2.625 0.375 5 1 C5.625 3.375 5.625 3.375 6 6 C5.34 6.66 4.68 7.32 4 8 C1.375 7.625 1.375 7.625 -1 7 C-1.625 4.625 -1.625 4.625 -2 2 C-1.34 1.34 -0.68 0.68 0 0 Z " fill="#616161" transform="translate(34,32)"/>
</svg>
