<svg width="24" height="24" viewBox="0 0 24 24" fill="none" xmlns="http://www.w3.org/2000/svg">
<path d="M12 2V14M12 2L8 6M12 2L16 6M12 14C13.1046 14 14 14.8954 14 16V19C14 20.1046 13.1046 21 12 21C10.8954 21 10 20.1046 10 19V16C10 14.8954 10.8954 14 12 14Z" stroke="currentColor" stroke-width="2" stroke-linecap="round" stroke-linejoin="round"/>
<path d="M18 8V11C18 11.5523 17.5523 12 17 12H15" stroke="currentColor" stroke-width="2" stroke-linecap="round"/>
<circle cx="18" cy="7" r="1" fill="currentColor"/>
<path d="M6 8V10C6 10.5523 6.44772 11 7 11H9" stroke="currentColor" stroke-width="2" stroke-linecap="round"/>
<rect x="5" y="11" width="2" height="2" rx="0.5" fill="currentColor"/>
</svg>
